<svg width="42" height="35" viewBox="0 0 42 35" fill="none" xmlns="http://www.w3.org/2000/svg">
<path d="M26 13.375V1L1 11.3125V23.6875L26 13.375Z" fill="#1F2937"/>
<path d="M26 13.375L1 23.6875L16 34L41 23.6875L26 13.375Z" fill="#1F2937"/>
<path d="M26 1V13.375L41 23.6875V11.3125L26 1Z" fill="#1F2937"/>
<path d="M26 1V13.375M26 1L1 11.3125V23.6875M26 1L41 11.3125V23.6875M26 13.375L1 23.6875M26 13.375L41 23.6875M1 23.6875L16 34L41 23.6875" stroke="#F3F4F6"/>
<path d="M10.0001 11V20L5.6001 21.8V12.8L10.0001 11Z" fill="#F3F4F6"/>
<path d="M30.0453 7V12.5455L36.5767 17.0455V11.5L30.0453 7Z" fill="#F3F4F6"/>
</svg>
